G75*
%MOIN*%
%OFA0B0*%
%FSLAX25Y25*%
%IPPOS*%
%LPD*%
%AMOC8*
5,1,8,0,0,1.08239X$1,22.5*
%
%ADD10C,0.00000*%
%ADD11OC8,0.05200*%
%ADD12C,0.07400*%
%ADD13C,0.05200*%
%ADD14C,0.05150*%
%ADD15C,0.06600*%
%ADD16OC8,0.05150*%
%ADD17C,0.11220*%
%ADD18C,0.06300*%
%ADD19OC8,0.06300*%
%ADD20C,0.01600*%
%ADD21C,0.03962*%
D10*
X0013667Y0031998D02*
X0013667Y0228849D01*
X0210517Y0228849D01*
X0210517Y0031998D01*
X0013667Y0031998D01*
D11*
X0028667Y0041998D03*
X0038667Y0041998D03*
X0028667Y0051998D03*
X0018667Y0081998D03*
X0058667Y0081998D03*
X0063667Y0051998D03*
X0073667Y0051998D03*
X0078667Y0041998D03*
X0128667Y0121998D03*
X0128667Y0161998D03*
X0128667Y0171998D03*
X0113667Y0191998D03*
X0113667Y0216998D03*
X0123667Y0216998D03*
X0136667Y0216998D03*
X0143667Y0216998D03*
X0150667Y0216998D03*
X0153667Y0201998D03*
X0163667Y0201998D03*
X0168667Y0121998D03*
X0073667Y0191998D03*
D12*
X0018667Y0166998D03*
X0018667Y0156998D03*
X0018667Y0146998D03*
X0018667Y0136998D03*
X0018667Y0126998D03*
X0018667Y0116998D03*
X0018667Y0106998D03*
X0018667Y0096998D03*
X0073667Y0091998D03*
X0073667Y0081998D03*
X0073667Y0101998D03*
X0203667Y0096998D03*
X0203667Y0106998D03*
X0203667Y0116998D03*
X0203667Y0126998D03*
X0203667Y0136998D03*
X0203667Y0146998D03*
X0203667Y0156998D03*
X0203667Y0166998D03*
X0203667Y0176998D03*
X0203667Y0186998D03*
X0203667Y0196998D03*
X0203667Y0206998D03*
X0203667Y0216998D03*
D13*
X0121267Y0171998D02*
X0116067Y0171998D01*
X0116067Y0161998D02*
X0121267Y0161998D01*
X0121267Y0151998D02*
X0116067Y0151998D01*
X0116067Y0141998D02*
X0121267Y0141998D01*
X0121267Y0131998D02*
X0116067Y0131998D01*
X0121267Y0131998D01*
X0121267Y0121998D02*
X0116067Y0121998D01*
X0116067Y0111998D02*
X0121267Y0111998D01*
X0121267Y0101998D02*
X0116067Y0101998D01*
X0116067Y0091998D02*
X0121267Y0091998D01*
X0121267Y0081998D02*
X0116067Y0081998D01*
X0116067Y0071998D02*
X0121267Y0071998D01*
X0121267Y0061998D02*
X0116067Y0061998D01*
X0116067Y0051998D02*
X0121267Y0051998D01*
X0121267Y0041998D02*
X0116067Y0041998D01*
X0091267Y0041998D02*
X0086067Y0041998D01*
X0086067Y0051998D02*
X0091267Y0051998D01*
X0091267Y0061998D02*
X0086067Y0061998D01*
X0086067Y0071998D02*
X0091267Y0071998D01*
X0091267Y0081998D02*
X0086067Y0081998D01*
X0086067Y0091998D02*
X0091267Y0091998D01*
X0091267Y0101998D02*
X0086067Y0101998D01*
X0086067Y0111998D02*
X0091267Y0111998D01*
X0091267Y0121998D02*
X0086067Y0121998D01*
X0086067Y0131998D02*
X0091267Y0131998D01*
X0091267Y0141998D02*
X0086067Y0141998D01*
X0086067Y0151998D02*
X0091267Y0151998D01*
X0091267Y0161998D02*
X0086067Y0161998D01*
X0086067Y0171998D02*
X0091267Y0171998D01*
D14*
X0088667Y0216998D03*
X0078667Y0216998D03*
X0068667Y0216998D03*
X0048745Y0213297D03*
X0044021Y0210148D03*
X0048745Y0206998D03*
X0044021Y0203849D03*
X0048745Y0200699D03*
D15*
X0058667Y0216998D03*
X0098667Y0216998D03*
D16*
X0163667Y0216998D03*
X0183667Y0216998D03*
X0038667Y0066998D03*
X0018667Y0066998D03*
D17*
X0028667Y0192628D03*
X0028667Y0221368D03*
D18*
X0128667Y0201998D03*
X0133667Y0091998D03*
D19*
X0133667Y0081998D03*
X0128667Y0191998D03*
D20*
X0118667Y0171998D02*
X0113667Y0171998D01*
X0108667Y0166998D01*
X0108667Y0126998D01*
X0113667Y0121998D01*
X0118667Y0121998D01*
X0128667Y0121998D01*
X0118667Y0111998D02*
X0103667Y0116998D01*
X0103667Y0181998D01*
X0098667Y0186998D01*
X0068667Y0186998D01*
X0063667Y0196998D01*
X0058667Y0201998D02*
X0058667Y0206998D01*
X0048667Y0212998D01*
X0048667Y0206998D02*
X0048745Y0206919D01*
X0053667Y0201998D01*
X0053667Y0191998D01*
X0063667Y0181998D01*
X0098667Y0181998D01*
X0098667Y0111998D01*
X0118667Y0101998D01*
X0158667Y0136998D02*
X0158667Y0186998D01*
X0158667Y0136998D02*
X0168667Y0126998D01*
X0168667Y0121998D01*
X0088667Y0051998D02*
X0073667Y0051998D01*
X0033667Y0091998D01*
X0033667Y0106998D01*
X0018667Y0106998D01*
X0028667Y0096998D01*
X0028667Y0091998D01*
X0018667Y0081998D01*
X0058667Y0201998D02*
X0073667Y0201998D01*
X0078667Y0206998D01*
X0078667Y0216998D01*
X0048745Y0206998D02*
X0048745Y0206919D01*
D21*
X0063667Y0196998D03*
X0108667Y0176998D03*
X0158667Y0186998D03*
M02*
