%
M48
M72
T01C0.02362
T02C0.03150
T03C0.03200
T04C0.04000
T05C0.04331
T06C0.07480
%
T01
X108667Y176998
X63667Y196998
X158667Y186998
T02
X44021Y210148
X48745Y213297
X48745Y206998
X44021Y203849
X48745Y200699
X68667Y216998
X78667Y216998
X88667Y216998
X163667Y216998
X183667Y216998
X73667Y101998
X73667Y91998
X73667Y81998
X38667Y66998
X18667Y66998
T03
X28667Y41998
X38667Y41998
X28667Y51998
X18667Y81998
X58667Y81998
X63667Y51998
X73667Y51998
X78667Y41998
X88667Y41998
X88667Y51998
X88667Y61998
X88667Y71998
X88667Y81998
X88667Y91998
X88667Y101998
X88667Y111998
X88667Y121998
X88667Y131998
X88667Y141998
X88667Y151998
X88667Y161998
X88667Y171998
X73667Y191998
X113667Y191998
X128667Y191998
X128667Y201998
X123667Y216998
X113667Y216998
X136667Y216998
X143667Y216998
X150667Y216998
X153667Y201998
X163667Y201998
X128667Y171998
X128667Y161998
X118667Y161998
X118667Y151998
X118667Y141998
X118667Y131998
X118667Y131998
X118667Y121998
X128667Y121998
X118667Y111998
X118667Y101998
X118667Y91998
X118667Y81998
X118667Y71998
X118667Y61998
X118667Y51998
X118667Y41998
X133667Y81998
X133667Y91998
X168667Y121998
X118667Y171998
T04
X18667Y166998
X18667Y156998
X18667Y146998
X18667Y136998
X18667Y126998
X18667Y116998
X18667Y106998
X18667Y96998
X203667Y96998
X203667Y106998
X203667Y116998
X203667Y126998
X203667Y136998
X203667Y146998
X203667Y156998
X203667Y166998
X203667Y176998
X203667Y186998
X203667Y196998
X203667Y206998
X203667Y216998
T05
X58667Y216998
X98667Y216998
T06
X28667Y221368
X28667Y192628
M30
