G75*
%MOIN*%
%OFA0B0*%
%FSLAX25Y25*%
%IPPOS*%
%LPD*%
%AMOC8*
5,1,8,0,0,1.08239X$1,22.5*
%
%ADD10C,0.00000*%
%ADD11C,0.00600*%
%ADD12C,0.01000*%
%ADD13C,0.00800*%
%ADD14R,0.03400X0.02400*%
%ADD15C,0.00500*%
D10*
X0013667Y0031998D02*
X0013667Y0228849D01*
X0210517Y0228849D01*
X0210517Y0031998D01*
X0013667Y0031998D01*
D11*
X0022667Y0046998D02*
X0022669Y0047150D01*
X0022675Y0047301D01*
X0022684Y0047452D01*
X0022698Y0047604D01*
X0022715Y0047754D01*
X0022736Y0047904D01*
X0022761Y0048054D01*
X0022789Y0048203D01*
X0022822Y0048351D01*
X0022858Y0048498D01*
X0022897Y0048645D01*
X0022941Y0048790D01*
X0022988Y0048934D01*
X0023039Y0049077D01*
X0023093Y0049218D01*
X0023151Y0049359D01*
X0023212Y0049497D01*
X0023277Y0049634D01*
X0023346Y0049770D01*
X0023417Y0049903D01*
X0023492Y0050035D01*
X0023571Y0050165D01*
X0023652Y0050292D01*
X0023737Y0050418D01*
X0023825Y0050542D01*
X0023916Y0050663D01*
X0024010Y0050782D01*
X0024108Y0050898D01*
X0024208Y0051012D01*
X0024310Y0051124D01*
X0024416Y0051232D01*
X0024524Y0051338D01*
X0024635Y0051442D01*
X0024749Y0051542D01*
X0024865Y0051640D01*
X0024984Y0051734D01*
X0034667Y0046998D02*
X0034665Y0046844D01*
X0034659Y0046690D01*
X0034649Y0046536D01*
X0034635Y0046382D01*
X0034618Y0046229D01*
X0034596Y0046077D01*
X0034570Y0045925D01*
X0034541Y0045773D01*
X0034507Y0045623D01*
X0034470Y0045473D01*
X0034429Y0045325D01*
X0034384Y0045177D01*
X0034335Y0045031D01*
X0034283Y0044886D01*
X0034227Y0044743D01*
X0034167Y0044600D01*
X0034104Y0044460D01*
X0034037Y0044321D01*
X0033966Y0044184D01*
X0033892Y0044049D01*
X0033815Y0043916D01*
X0033734Y0043784D01*
X0033650Y0043655D01*
X0033562Y0043528D01*
X0033471Y0043404D01*
X0033378Y0043282D01*
X0033280Y0043162D01*
X0033180Y0043045D01*
X0033077Y0042930D01*
X0032971Y0042818D01*
X0032863Y0042709D01*
X0032751Y0042603D01*
X0032637Y0042499D01*
X0032520Y0042399D01*
X0032401Y0042301D01*
X0032279Y0042207D01*
X0032154Y0042116D01*
X0034667Y0046998D02*
X0034665Y0047148D01*
X0034659Y0047299D01*
X0034650Y0047449D01*
X0034637Y0047598D01*
X0034620Y0047748D01*
X0034599Y0047897D01*
X0034575Y0048045D01*
X0034547Y0048193D01*
X0034515Y0048340D01*
X0034480Y0048486D01*
X0034440Y0048631D01*
X0034398Y0048775D01*
X0034351Y0048918D01*
X0034301Y0049060D01*
X0034248Y0049201D01*
X0034191Y0049340D01*
X0034131Y0049478D01*
X0034067Y0049614D01*
X0034000Y0049748D01*
X0033929Y0049881D01*
X0033855Y0050012D01*
X0033778Y0050141D01*
X0033697Y0050268D01*
X0033614Y0050393D01*
X0033527Y0050516D01*
X0033438Y0050637D01*
X0033345Y0050755D01*
X0033249Y0050871D01*
X0033151Y0050985D01*
X0033050Y0051096D01*
X0032945Y0051205D01*
X0032839Y0051310D01*
X0032729Y0051414D01*
X0032617Y0051514D01*
X0032503Y0051612D01*
X0032386Y0051706D01*
X0032267Y0051798D01*
X0022667Y0046998D02*
X0022669Y0046846D01*
X0022675Y0046695D01*
X0022684Y0046544D01*
X0022698Y0046392D01*
X0022715Y0046242D01*
X0022736Y0046092D01*
X0022761Y0045942D01*
X0022789Y0045793D01*
X0022822Y0045645D01*
X0022858Y0045498D01*
X0022897Y0045351D01*
X0022941Y0045206D01*
X0022988Y0045062D01*
X0023039Y0044919D01*
X0023093Y0044778D01*
X0023151Y0044637D01*
X0023212Y0044499D01*
X0023277Y0044362D01*
X0023346Y0044226D01*
X0023417Y0044093D01*
X0023492Y0043961D01*
X0023571Y0043831D01*
X0023652Y0043704D01*
X0023737Y0043578D01*
X0023825Y0043454D01*
X0023916Y0043333D01*
X0024010Y0043214D01*
X0024108Y0043098D01*
X0024208Y0042984D01*
X0024310Y0042872D01*
X0024416Y0042764D01*
X0024524Y0042658D01*
X0024635Y0042554D01*
X0024749Y0042454D01*
X0024865Y0042356D01*
X0024984Y0042262D01*
X0046167Y0045498D02*
X0046167Y0038498D01*
X0046169Y0038438D01*
X0046174Y0038377D01*
X0046183Y0038318D01*
X0046196Y0038259D01*
X0046212Y0038200D01*
X0046232Y0038143D01*
X0046255Y0038088D01*
X0046282Y0038033D01*
X0046311Y0037981D01*
X0046344Y0037930D01*
X0046380Y0037881D01*
X0046418Y0037835D01*
X0046460Y0037791D01*
X0046504Y0037749D01*
X0046550Y0037711D01*
X0046599Y0037675D01*
X0046650Y0037642D01*
X0046702Y0037613D01*
X0046757Y0037586D01*
X0046812Y0037563D01*
X0046869Y0037543D01*
X0046928Y0037527D01*
X0046987Y0037514D01*
X0047046Y0037505D01*
X0047107Y0037500D01*
X0047167Y0037498D01*
X0048667Y0037498D01*
X0049167Y0037998D01*
X0068167Y0037998D01*
X0068667Y0037498D01*
X0070167Y0037498D01*
X0070227Y0037500D01*
X0070288Y0037505D01*
X0070347Y0037514D01*
X0070406Y0037527D01*
X0070465Y0037543D01*
X0070522Y0037563D01*
X0070577Y0037586D01*
X0070632Y0037613D01*
X0070684Y0037642D01*
X0070735Y0037675D01*
X0070784Y0037711D01*
X0070830Y0037749D01*
X0070874Y0037791D01*
X0070916Y0037835D01*
X0070954Y0037881D01*
X0070990Y0037930D01*
X0071023Y0037981D01*
X0071052Y0038033D01*
X0071079Y0038088D01*
X0071102Y0038143D01*
X0071122Y0038200D01*
X0071138Y0038259D01*
X0071151Y0038318D01*
X0071160Y0038377D01*
X0071165Y0038438D01*
X0071167Y0038498D01*
X0071167Y0045498D01*
X0071165Y0045558D01*
X0071160Y0045619D01*
X0071151Y0045678D01*
X0071138Y0045737D01*
X0071122Y0045796D01*
X0071102Y0045853D01*
X0071079Y0045908D01*
X0071052Y0045963D01*
X0071023Y0046015D01*
X0070990Y0046066D01*
X0070954Y0046115D01*
X0070916Y0046161D01*
X0070874Y0046205D01*
X0070830Y0046247D01*
X0070784Y0046285D01*
X0070735Y0046321D01*
X0070684Y0046354D01*
X0070632Y0046383D01*
X0070577Y0046410D01*
X0070522Y0046433D01*
X0070465Y0046453D01*
X0070406Y0046469D01*
X0070347Y0046482D01*
X0070288Y0046491D01*
X0070227Y0046496D01*
X0070167Y0046498D01*
X0068667Y0046498D01*
X0068167Y0045998D01*
X0049167Y0045998D01*
X0048667Y0046498D01*
X0047167Y0046498D01*
X0047107Y0046496D01*
X0047046Y0046491D01*
X0046987Y0046482D01*
X0046928Y0046469D01*
X0046869Y0046453D01*
X0046812Y0046433D01*
X0046757Y0046410D01*
X0046702Y0046383D01*
X0046650Y0046354D01*
X0046599Y0046321D01*
X0046550Y0046285D01*
X0046504Y0046247D01*
X0046460Y0046205D01*
X0046418Y0046161D01*
X0046380Y0046115D01*
X0046344Y0046066D01*
X0046311Y0046015D01*
X0046282Y0045963D01*
X0046255Y0045908D01*
X0046232Y0045853D01*
X0046212Y0045796D01*
X0046196Y0045737D01*
X0046183Y0045678D01*
X0046174Y0045619D01*
X0046169Y0045558D01*
X0046167Y0045498D01*
X0059167Y0047998D02*
X0059167Y0055998D01*
X0059169Y0056058D01*
X0059174Y0056119D01*
X0059183Y0056178D01*
X0059196Y0056237D01*
X0059212Y0056296D01*
X0059232Y0056353D01*
X0059255Y0056408D01*
X0059282Y0056463D01*
X0059311Y0056515D01*
X0059344Y0056566D01*
X0059380Y0056615D01*
X0059418Y0056661D01*
X0059460Y0056705D01*
X0059504Y0056747D01*
X0059550Y0056785D01*
X0059599Y0056821D01*
X0059650Y0056854D01*
X0059702Y0056883D01*
X0059757Y0056910D01*
X0059812Y0056933D01*
X0059869Y0056953D01*
X0059928Y0056969D01*
X0059987Y0056982D01*
X0060046Y0056991D01*
X0060107Y0056996D01*
X0060167Y0056998D01*
X0077167Y0056998D01*
X0077227Y0056996D01*
X0077288Y0056991D01*
X0077347Y0056982D01*
X0077406Y0056969D01*
X0077465Y0056953D01*
X0077522Y0056933D01*
X0077577Y0056910D01*
X0077632Y0056883D01*
X0077684Y0056854D01*
X0077735Y0056821D01*
X0077784Y0056785D01*
X0077830Y0056747D01*
X0077874Y0056705D01*
X0077916Y0056661D01*
X0077954Y0056615D01*
X0077990Y0056566D01*
X0078023Y0056515D01*
X0078052Y0056463D01*
X0078079Y0056408D01*
X0078102Y0056353D01*
X0078122Y0056296D01*
X0078138Y0056237D01*
X0078151Y0056178D01*
X0078160Y0056119D01*
X0078165Y0056058D01*
X0078167Y0055998D01*
X0078167Y0047998D01*
X0078165Y0047938D01*
X0078160Y0047877D01*
X0078151Y0047818D01*
X0078138Y0047759D01*
X0078122Y0047700D01*
X0078102Y0047643D01*
X0078079Y0047588D01*
X0078052Y0047533D01*
X0078023Y0047481D01*
X0077990Y0047430D01*
X0077954Y0047381D01*
X0077916Y0047335D01*
X0077874Y0047291D01*
X0077830Y0047249D01*
X0077784Y0047211D01*
X0077735Y0047175D01*
X0077684Y0047142D01*
X0077632Y0047113D01*
X0077577Y0047086D01*
X0077522Y0047063D01*
X0077465Y0047043D01*
X0077406Y0047027D01*
X0077347Y0047014D01*
X0077288Y0047005D01*
X0077227Y0047000D01*
X0077167Y0046998D01*
X0060167Y0046998D01*
X0060107Y0047000D01*
X0060046Y0047005D01*
X0059987Y0047014D01*
X0059928Y0047027D01*
X0059869Y0047043D01*
X0059812Y0047063D01*
X0059757Y0047086D01*
X0059702Y0047113D01*
X0059650Y0047142D01*
X0059599Y0047175D01*
X0059550Y0047211D01*
X0059504Y0047249D01*
X0059460Y0047291D01*
X0059418Y0047335D01*
X0059380Y0047381D01*
X0059344Y0047430D01*
X0059311Y0047481D01*
X0059282Y0047533D01*
X0059255Y0047588D01*
X0059232Y0047643D01*
X0059212Y0047700D01*
X0059196Y0047759D01*
X0059183Y0047818D01*
X0059174Y0047877D01*
X0059169Y0047938D01*
X0059167Y0047998D01*
X0067167Y0051998D02*
X0067667Y0051998D01*
X0069667Y0051998D02*
X0070167Y0051998D01*
X0092167Y0036998D02*
X0115167Y0036998D01*
X0115167Y0176998D01*
X0107667Y0176998D01*
X0107665Y0176872D01*
X0107659Y0176747D01*
X0107649Y0176622D01*
X0107635Y0176497D01*
X0107618Y0176372D01*
X0107596Y0176248D01*
X0107571Y0176125D01*
X0107541Y0176003D01*
X0107508Y0175882D01*
X0107471Y0175762D01*
X0107431Y0175643D01*
X0107386Y0175526D01*
X0107338Y0175409D01*
X0107286Y0175295D01*
X0107231Y0175182D01*
X0107172Y0175071D01*
X0107110Y0174962D01*
X0107044Y0174855D01*
X0106975Y0174750D01*
X0106903Y0174647D01*
X0106828Y0174546D01*
X0106749Y0174448D01*
X0106667Y0174353D01*
X0106583Y0174260D01*
X0106495Y0174170D01*
X0106405Y0174082D01*
X0106312Y0173998D01*
X0106217Y0173916D01*
X0106119Y0173837D01*
X0106018Y0173762D01*
X0105915Y0173690D01*
X0105810Y0173621D01*
X0105703Y0173555D01*
X0105594Y0173493D01*
X0105483Y0173434D01*
X0105370Y0173379D01*
X0105256Y0173327D01*
X0105139Y0173279D01*
X0105022Y0173234D01*
X0104903Y0173194D01*
X0104783Y0173157D01*
X0104662Y0173124D01*
X0104540Y0173094D01*
X0104417Y0173069D01*
X0104293Y0173047D01*
X0104168Y0173030D01*
X0104043Y0173016D01*
X0103918Y0173006D01*
X0103793Y0173000D01*
X0103667Y0172998D01*
X0103541Y0173000D01*
X0103416Y0173006D01*
X0103291Y0173016D01*
X0103166Y0173030D01*
X0103041Y0173047D01*
X0102917Y0173069D01*
X0102794Y0173094D01*
X0102672Y0173124D01*
X0102551Y0173157D01*
X0102431Y0173194D01*
X0102312Y0173234D01*
X0102195Y0173279D01*
X0102078Y0173327D01*
X0101964Y0173379D01*
X0101851Y0173434D01*
X0101740Y0173493D01*
X0101631Y0173555D01*
X0101524Y0173621D01*
X0101419Y0173690D01*
X0101316Y0173762D01*
X0101215Y0173837D01*
X0101117Y0173916D01*
X0101022Y0173998D01*
X0100929Y0174082D01*
X0100839Y0174170D01*
X0100751Y0174260D01*
X0100667Y0174353D01*
X0100585Y0174448D01*
X0100506Y0174546D01*
X0100431Y0174647D01*
X0100359Y0174750D01*
X0100290Y0174855D01*
X0100224Y0174962D01*
X0100162Y0175071D01*
X0100103Y0175182D01*
X0100048Y0175295D01*
X0099996Y0175409D01*
X0099948Y0175526D01*
X0099903Y0175643D01*
X0099863Y0175762D01*
X0099826Y0175882D01*
X0099793Y0176003D01*
X0099763Y0176125D01*
X0099738Y0176248D01*
X0099716Y0176372D01*
X0099699Y0176497D01*
X0099685Y0176622D01*
X0099675Y0176747D01*
X0099669Y0176872D01*
X0099667Y0176998D01*
X0092167Y0176998D01*
X0092167Y0036998D01*
X0126167Y0077498D02*
X0141167Y0077498D01*
X0141243Y0077500D01*
X0141319Y0077506D01*
X0141394Y0077515D01*
X0141469Y0077529D01*
X0141543Y0077546D01*
X0141616Y0077567D01*
X0141688Y0077591D01*
X0141759Y0077620D01*
X0141828Y0077651D01*
X0141895Y0077686D01*
X0141960Y0077725D01*
X0142024Y0077767D01*
X0142085Y0077812D01*
X0142144Y0077860D01*
X0142200Y0077911D01*
X0142254Y0077965D01*
X0142305Y0078021D01*
X0142353Y0078080D01*
X0142398Y0078141D01*
X0142440Y0078205D01*
X0142479Y0078270D01*
X0142514Y0078337D01*
X0142545Y0078406D01*
X0142574Y0078477D01*
X0142598Y0078549D01*
X0142619Y0078622D01*
X0142636Y0078696D01*
X0142650Y0078771D01*
X0142659Y0078846D01*
X0142665Y0078922D01*
X0142667Y0078998D01*
X0142667Y0093498D01*
X0139667Y0096498D01*
X0127667Y0096498D01*
X0124667Y0093498D01*
X0124667Y0078998D01*
X0124669Y0078922D01*
X0124675Y0078846D01*
X0124684Y0078771D01*
X0124698Y0078696D01*
X0124715Y0078622D01*
X0124736Y0078549D01*
X0124760Y0078477D01*
X0124789Y0078406D01*
X0124820Y0078337D01*
X0124855Y0078270D01*
X0124894Y0078205D01*
X0124936Y0078141D01*
X0124981Y0078080D01*
X0125029Y0078021D01*
X0125080Y0077965D01*
X0125134Y0077911D01*
X0125190Y0077860D01*
X0125249Y0077812D01*
X0125310Y0077767D01*
X0125374Y0077725D01*
X0125439Y0077686D01*
X0125506Y0077651D01*
X0125575Y0077620D01*
X0125646Y0077591D01*
X0125718Y0077567D01*
X0125791Y0077546D01*
X0125865Y0077529D01*
X0125940Y0077515D01*
X0126015Y0077506D01*
X0126091Y0077500D01*
X0126167Y0077498D01*
X0139067Y0092698D02*
X0139067Y0095298D01*
X0140267Y0093998D02*
X0137767Y0093998D01*
X0137167Y0117498D02*
X0138667Y0117498D01*
X0139167Y0117998D01*
X0158167Y0117998D01*
X0158667Y0117498D01*
X0160167Y0117498D01*
X0160227Y0117500D01*
X0160288Y0117505D01*
X0160347Y0117514D01*
X0160406Y0117527D01*
X0160465Y0117543D01*
X0160522Y0117563D01*
X0160577Y0117586D01*
X0160632Y0117613D01*
X0160684Y0117642D01*
X0160735Y0117675D01*
X0160784Y0117711D01*
X0160830Y0117749D01*
X0160874Y0117791D01*
X0160916Y0117835D01*
X0160954Y0117881D01*
X0160990Y0117930D01*
X0161023Y0117981D01*
X0161052Y0118033D01*
X0161079Y0118088D01*
X0161102Y0118143D01*
X0161122Y0118200D01*
X0161138Y0118259D01*
X0161151Y0118318D01*
X0161160Y0118377D01*
X0161165Y0118438D01*
X0161167Y0118498D01*
X0161167Y0125498D01*
X0161165Y0125558D01*
X0161160Y0125619D01*
X0161151Y0125678D01*
X0161138Y0125737D01*
X0161122Y0125796D01*
X0161102Y0125853D01*
X0161079Y0125908D01*
X0161052Y0125963D01*
X0161023Y0126015D01*
X0160990Y0126066D01*
X0160954Y0126115D01*
X0160916Y0126161D01*
X0160874Y0126205D01*
X0160830Y0126247D01*
X0160784Y0126285D01*
X0160735Y0126321D01*
X0160684Y0126354D01*
X0160632Y0126383D01*
X0160577Y0126410D01*
X0160522Y0126433D01*
X0160465Y0126453D01*
X0160406Y0126469D01*
X0160347Y0126482D01*
X0160288Y0126491D01*
X0160227Y0126496D01*
X0160167Y0126498D01*
X0158667Y0126498D01*
X0158167Y0125998D01*
X0139167Y0125998D01*
X0138667Y0126498D01*
X0137167Y0126498D01*
X0137107Y0126496D01*
X0137046Y0126491D01*
X0136987Y0126482D01*
X0136928Y0126469D01*
X0136869Y0126453D01*
X0136812Y0126433D01*
X0136757Y0126410D01*
X0136702Y0126383D01*
X0136650Y0126354D01*
X0136599Y0126321D01*
X0136550Y0126285D01*
X0136504Y0126247D01*
X0136460Y0126205D01*
X0136418Y0126161D01*
X0136380Y0126115D01*
X0136344Y0126066D01*
X0136311Y0126015D01*
X0136282Y0125963D01*
X0136255Y0125908D01*
X0136232Y0125853D01*
X0136212Y0125796D01*
X0136196Y0125737D01*
X0136183Y0125678D01*
X0136174Y0125619D01*
X0136169Y0125558D01*
X0136167Y0125498D01*
X0136167Y0118498D01*
X0136169Y0118438D01*
X0136174Y0118377D01*
X0136183Y0118318D01*
X0136196Y0118259D01*
X0136212Y0118200D01*
X0136232Y0118143D01*
X0136255Y0118088D01*
X0136282Y0118033D01*
X0136311Y0117981D01*
X0136344Y0117930D01*
X0136380Y0117881D01*
X0136418Y0117835D01*
X0136460Y0117791D01*
X0136504Y0117749D01*
X0136550Y0117711D01*
X0136599Y0117675D01*
X0136650Y0117642D01*
X0136702Y0117613D01*
X0136757Y0117586D01*
X0136812Y0117563D01*
X0136869Y0117543D01*
X0136928Y0117527D01*
X0136987Y0117514D01*
X0137046Y0117505D01*
X0137107Y0117500D01*
X0137167Y0117498D01*
X0132667Y0157498D02*
X0124667Y0157498D01*
X0124607Y0157500D01*
X0124546Y0157505D01*
X0124487Y0157514D01*
X0124428Y0157527D01*
X0124369Y0157543D01*
X0124312Y0157563D01*
X0124257Y0157586D01*
X0124202Y0157613D01*
X0124150Y0157642D01*
X0124099Y0157675D01*
X0124050Y0157711D01*
X0124004Y0157749D01*
X0123960Y0157791D01*
X0123918Y0157835D01*
X0123880Y0157881D01*
X0123844Y0157930D01*
X0123811Y0157981D01*
X0123782Y0158033D01*
X0123755Y0158088D01*
X0123732Y0158143D01*
X0123712Y0158200D01*
X0123696Y0158259D01*
X0123683Y0158318D01*
X0123674Y0158377D01*
X0123669Y0158438D01*
X0123667Y0158498D01*
X0123667Y0175498D01*
X0123669Y0175558D01*
X0123674Y0175619D01*
X0123683Y0175678D01*
X0123696Y0175737D01*
X0123712Y0175796D01*
X0123732Y0175853D01*
X0123755Y0175908D01*
X0123782Y0175963D01*
X0123811Y0176015D01*
X0123844Y0176066D01*
X0123880Y0176115D01*
X0123918Y0176161D01*
X0123960Y0176205D01*
X0124004Y0176247D01*
X0124050Y0176285D01*
X0124099Y0176321D01*
X0124150Y0176354D01*
X0124202Y0176383D01*
X0124257Y0176410D01*
X0124312Y0176433D01*
X0124369Y0176453D01*
X0124428Y0176469D01*
X0124487Y0176482D01*
X0124546Y0176491D01*
X0124607Y0176496D01*
X0124667Y0176498D01*
X0132667Y0176498D01*
X0132727Y0176496D01*
X0132788Y0176491D01*
X0132847Y0176482D01*
X0132906Y0176469D01*
X0132965Y0176453D01*
X0133022Y0176433D01*
X0133077Y0176410D01*
X0133132Y0176383D01*
X0133184Y0176354D01*
X0133235Y0176321D01*
X0133284Y0176285D01*
X0133330Y0176247D01*
X0133374Y0176205D01*
X0133416Y0176161D01*
X0133454Y0176115D01*
X0133490Y0176066D01*
X0133523Y0176015D01*
X0133552Y0175963D01*
X0133579Y0175908D01*
X0133602Y0175853D01*
X0133622Y0175796D01*
X0133638Y0175737D01*
X0133651Y0175678D01*
X0133660Y0175619D01*
X0133665Y0175558D01*
X0133667Y0175498D01*
X0133667Y0158498D01*
X0133665Y0158438D01*
X0133660Y0158377D01*
X0133651Y0158318D01*
X0133638Y0158259D01*
X0133622Y0158200D01*
X0133602Y0158143D01*
X0133579Y0158088D01*
X0133552Y0158033D01*
X0133523Y0157981D01*
X0133490Y0157930D01*
X0133454Y0157881D01*
X0133416Y0157835D01*
X0133374Y0157791D01*
X0133330Y0157749D01*
X0133284Y0157711D01*
X0133235Y0157675D01*
X0133184Y0157642D01*
X0133132Y0157613D01*
X0133077Y0157586D01*
X0133022Y0157563D01*
X0132965Y0157543D01*
X0132906Y0157527D01*
X0132847Y0157514D01*
X0132788Y0157505D01*
X0132727Y0157500D01*
X0132667Y0157498D01*
X0128667Y0165498D02*
X0128667Y0165998D01*
X0128667Y0167998D02*
X0128667Y0168498D01*
X0136167Y0187498D02*
X0121167Y0187498D01*
X0121091Y0187500D01*
X0121015Y0187506D01*
X0120940Y0187515D01*
X0120865Y0187529D01*
X0120791Y0187546D01*
X0120718Y0187567D01*
X0120646Y0187591D01*
X0120575Y0187620D01*
X0120506Y0187651D01*
X0120439Y0187686D01*
X0120374Y0187725D01*
X0120310Y0187767D01*
X0120249Y0187812D01*
X0120190Y0187860D01*
X0120134Y0187911D01*
X0120080Y0187965D01*
X0120029Y0188021D01*
X0119981Y0188080D01*
X0119936Y0188141D01*
X0119894Y0188205D01*
X0119855Y0188270D01*
X0119820Y0188337D01*
X0119789Y0188406D01*
X0119760Y0188477D01*
X0119736Y0188549D01*
X0119715Y0188622D01*
X0119698Y0188696D01*
X0119684Y0188771D01*
X0119675Y0188846D01*
X0119669Y0188922D01*
X0119667Y0188998D01*
X0119667Y0203498D01*
X0122667Y0206498D01*
X0134667Y0206498D01*
X0137667Y0203498D01*
X0137667Y0188998D01*
X0137665Y0188922D01*
X0137659Y0188846D01*
X0137650Y0188771D01*
X0137636Y0188696D01*
X0137619Y0188622D01*
X0137598Y0188549D01*
X0137574Y0188477D01*
X0137545Y0188406D01*
X0137514Y0188337D01*
X0137479Y0188270D01*
X0137440Y0188205D01*
X0137398Y0188141D01*
X0137353Y0188080D01*
X0137305Y0188021D01*
X0137254Y0187965D01*
X0137200Y0187911D01*
X0137144Y0187860D01*
X0137085Y0187812D01*
X0137024Y0187767D01*
X0136960Y0187725D01*
X0136895Y0187686D01*
X0136828Y0187651D01*
X0136759Y0187620D01*
X0136688Y0187591D01*
X0136616Y0187567D01*
X0136543Y0187546D01*
X0136469Y0187529D01*
X0136394Y0187515D01*
X0136319Y0187506D01*
X0136243Y0187500D01*
X0136167Y0187498D01*
X0134067Y0202698D02*
X0134067Y0205298D01*
X0135267Y0203998D02*
X0132767Y0203998D01*
X0118667Y0210998D02*
X0118513Y0211000D01*
X0118359Y0211006D01*
X0118205Y0211016D01*
X0118051Y0211030D01*
X0117898Y0211047D01*
X0117746Y0211069D01*
X0117594Y0211095D01*
X0117442Y0211124D01*
X0117292Y0211158D01*
X0117142Y0211195D01*
X0116994Y0211236D01*
X0116846Y0211281D01*
X0116700Y0211330D01*
X0116555Y0211382D01*
X0116412Y0211438D01*
X0116269Y0211498D01*
X0116129Y0211561D01*
X0115990Y0211628D01*
X0115853Y0211699D01*
X0115718Y0211773D01*
X0115585Y0211850D01*
X0115453Y0211931D01*
X0115324Y0212015D01*
X0115197Y0212103D01*
X0115073Y0212194D01*
X0114951Y0212287D01*
X0114831Y0212385D01*
X0114714Y0212485D01*
X0114599Y0212588D01*
X0114487Y0212694D01*
X0114378Y0212802D01*
X0114272Y0212914D01*
X0114168Y0213028D01*
X0114068Y0213145D01*
X0113970Y0213264D01*
X0113876Y0213386D01*
X0113785Y0213511D01*
X0118667Y0222998D02*
X0118819Y0222996D01*
X0118970Y0222990D01*
X0119121Y0222981D01*
X0119273Y0222967D01*
X0119423Y0222950D01*
X0119573Y0222929D01*
X0119723Y0222904D01*
X0119872Y0222876D01*
X0120020Y0222843D01*
X0120167Y0222807D01*
X0120314Y0222768D01*
X0120459Y0222724D01*
X0120603Y0222677D01*
X0120746Y0222626D01*
X0120887Y0222572D01*
X0121028Y0222514D01*
X0121166Y0222453D01*
X0121303Y0222388D01*
X0121439Y0222319D01*
X0121572Y0222248D01*
X0121704Y0222173D01*
X0121834Y0222094D01*
X0121961Y0222013D01*
X0122087Y0221928D01*
X0122211Y0221840D01*
X0122332Y0221749D01*
X0122451Y0221655D01*
X0122567Y0221557D01*
X0122681Y0221457D01*
X0122793Y0221355D01*
X0122901Y0221249D01*
X0123007Y0221141D01*
X0123111Y0221030D01*
X0123211Y0220916D01*
X0123309Y0220800D01*
X0123403Y0220681D01*
X0118667Y0222998D02*
X0118515Y0222996D01*
X0118364Y0222990D01*
X0118213Y0222981D01*
X0118061Y0222967D01*
X0117911Y0222950D01*
X0117761Y0222929D01*
X0117611Y0222904D01*
X0117462Y0222876D01*
X0117314Y0222843D01*
X0117167Y0222807D01*
X0117020Y0222768D01*
X0116875Y0222724D01*
X0116731Y0222677D01*
X0116588Y0222626D01*
X0116447Y0222572D01*
X0116306Y0222514D01*
X0116168Y0222453D01*
X0116031Y0222388D01*
X0115895Y0222319D01*
X0115762Y0222248D01*
X0115630Y0222173D01*
X0115500Y0222094D01*
X0115373Y0222013D01*
X0115247Y0221928D01*
X0115123Y0221840D01*
X0115002Y0221749D01*
X0114883Y0221655D01*
X0114767Y0221557D01*
X0114653Y0221457D01*
X0114541Y0221355D01*
X0114433Y0221249D01*
X0114327Y0221141D01*
X0114223Y0221030D01*
X0114123Y0220916D01*
X0114025Y0220800D01*
X0113931Y0220681D01*
X0118667Y0210998D02*
X0118817Y0211000D01*
X0118968Y0211006D01*
X0119118Y0211015D01*
X0119267Y0211028D01*
X0119417Y0211045D01*
X0119566Y0211066D01*
X0119714Y0211090D01*
X0119862Y0211118D01*
X0120009Y0211150D01*
X0120155Y0211185D01*
X0120300Y0211225D01*
X0120444Y0211267D01*
X0120587Y0211314D01*
X0120729Y0211364D01*
X0120870Y0211417D01*
X0121009Y0211474D01*
X0121147Y0211534D01*
X0121283Y0211598D01*
X0121417Y0211665D01*
X0121550Y0211736D01*
X0121681Y0211810D01*
X0121810Y0211887D01*
X0121937Y0211968D01*
X0122062Y0212051D01*
X0122185Y0212138D01*
X0122306Y0212227D01*
X0122424Y0212320D01*
X0122540Y0212416D01*
X0122654Y0212514D01*
X0122765Y0212615D01*
X0122874Y0212720D01*
X0122979Y0212826D01*
X0123083Y0212936D01*
X0123183Y0213048D01*
X0123281Y0213162D01*
X0123375Y0213279D01*
X0123467Y0213398D01*
X0106167Y0195498D02*
X0106167Y0188498D01*
X0106165Y0188438D01*
X0106160Y0188377D01*
X0106151Y0188318D01*
X0106138Y0188259D01*
X0106122Y0188200D01*
X0106102Y0188143D01*
X0106079Y0188088D01*
X0106052Y0188033D01*
X0106023Y0187981D01*
X0105990Y0187930D01*
X0105954Y0187881D01*
X0105916Y0187835D01*
X0105874Y0187791D01*
X0105830Y0187749D01*
X0105784Y0187711D01*
X0105735Y0187675D01*
X0105684Y0187642D01*
X0105632Y0187613D01*
X0105577Y0187586D01*
X0105522Y0187563D01*
X0105465Y0187543D01*
X0105406Y0187527D01*
X0105347Y0187514D01*
X0105288Y0187505D01*
X0105227Y0187500D01*
X0105167Y0187498D01*
X0103667Y0187498D01*
X0103167Y0187998D01*
X0084167Y0187998D01*
X0083667Y0187498D01*
X0082167Y0187498D01*
X0082107Y0187500D01*
X0082046Y0187505D01*
X0081987Y0187514D01*
X0081928Y0187527D01*
X0081869Y0187543D01*
X0081812Y0187563D01*
X0081757Y0187586D01*
X0081702Y0187613D01*
X0081650Y0187642D01*
X0081599Y0187675D01*
X0081550Y0187711D01*
X0081504Y0187749D01*
X0081460Y0187791D01*
X0081418Y0187835D01*
X0081380Y0187881D01*
X0081344Y0187930D01*
X0081311Y0187981D01*
X0081282Y0188033D01*
X0081255Y0188088D01*
X0081232Y0188143D01*
X0081212Y0188200D01*
X0081196Y0188259D01*
X0081183Y0188318D01*
X0081174Y0188377D01*
X0081169Y0188438D01*
X0081167Y0188498D01*
X0081167Y0195498D01*
X0081169Y0195558D01*
X0081174Y0195619D01*
X0081183Y0195678D01*
X0081196Y0195737D01*
X0081212Y0195796D01*
X0081232Y0195853D01*
X0081255Y0195908D01*
X0081282Y0195963D01*
X0081311Y0196015D01*
X0081344Y0196066D01*
X0081380Y0196115D01*
X0081418Y0196161D01*
X0081460Y0196205D01*
X0081504Y0196247D01*
X0081550Y0196285D01*
X0081599Y0196321D01*
X0081650Y0196354D01*
X0081702Y0196383D01*
X0081757Y0196410D01*
X0081812Y0196433D01*
X0081869Y0196453D01*
X0081928Y0196469D01*
X0081987Y0196482D01*
X0082046Y0196491D01*
X0082107Y0196496D01*
X0082167Y0196498D01*
X0083667Y0196498D01*
X0084167Y0195998D01*
X0103167Y0195998D01*
X0103667Y0196498D01*
X0105167Y0196498D01*
X0105227Y0196496D01*
X0105288Y0196491D01*
X0105347Y0196482D01*
X0105406Y0196469D01*
X0105465Y0196453D01*
X0105522Y0196433D01*
X0105577Y0196410D01*
X0105632Y0196383D01*
X0105684Y0196354D01*
X0105735Y0196321D01*
X0105784Y0196285D01*
X0105830Y0196247D01*
X0105874Y0196205D01*
X0105916Y0196161D01*
X0105954Y0196115D01*
X0105990Y0196066D01*
X0106023Y0196015D01*
X0106052Y0195963D01*
X0106079Y0195908D01*
X0106102Y0195853D01*
X0106122Y0195796D01*
X0106138Y0195737D01*
X0106151Y0195678D01*
X0106160Y0195619D01*
X0106165Y0195558D01*
X0106167Y0195498D01*
X0098667Y0205498D02*
X0058667Y0205498D01*
X0058667Y0228498D01*
X0068667Y0228498D01*
X0078667Y0228498D01*
X0098667Y0228498D01*
X0098667Y0205998D01*
X0149167Y0205998D02*
X0149167Y0197998D01*
X0149169Y0197938D01*
X0149174Y0197877D01*
X0149183Y0197818D01*
X0149196Y0197759D01*
X0149212Y0197700D01*
X0149232Y0197643D01*
X0149255Y0197588D01*
X0149282Y0197533D01*
X0149311Y0197481D01*
X0149344Y0197430D01*
X0149380Y0197381D01*
X0149418Y0197335D01*
X0149460Y0197291D01*
X0149504Y0197249D01*
X0149550Y0197211D01*
X0149599Y0197175D01*
X0149650Y0197142D01*
X0149702Y0197113D01*
X0149757Y0197086D01*
X0149812Y0197063D01*
X0149869Y0197043D01*
X0149928Y0197027D01*
X0149987Y0197014D01*
X0150046Y0197005D01*
X0150107Y0197000D01*
X0150167Y0196998D01*
X0167167Y0196998D01*
X0167227Y0197000D01*
X0167288Y0197005D01*
X0167347Y0197014D01*
X0167406Y0197027D01*
X0167465Y0197043D01*
X0167522Y0197063D01*
X0167577Y0197086D01*
X0167632Y0197113D01*
X0167684Y0197142D01*
X0167735Y0197175D01*
X0167784Y0197211D01*
X0167830Y0197249D01*
X0167874Y0197291D01*
X0167916Y0197335D01*
X0167954Y0197381D01*
X0167990Y0197430D01*
X0168023Y0197481D01*
X0168052Y0197533D01*
X0168079Y0197588D01*
X0168102Y0197643D01*
X0168122Y0197700D01*
X0168138Y0197759D01*
X0168151Y0197818D01*
X0168160Y0197877D01*
X0168165Y0197938D01*
X0168167Y0197998D01*
X0168167Y0205998D01*
X0168165Y0206058D01*
X0168160Y0206119D01*
X0168151Y0206178D01*
X0168138Y0206237D01*
X0168122Y0206296D01*
X0168102Y0206353D01*
X0168079Y0206408D01*
X0168052Y0206463D01*
X0168023Y0206515D01*
X0167990Y0206566D01*
X0167954Y0206615D01*
X0167916Y0206661D01*
X0167874Y0206705D01*
X0167830Y0206747D01*
X0167784Y0206785D01*
X0167735Y0206821D01*
X0167684Y0206854D01*
X0167632Y0206883D01*
X0167577Y0206910D01*
X0167522Y0206933D01*
X0167465Y0206953D01*
X0167406Y0206969D01*
X0167347Y0206982D01*
X0167288Y0206991D01*
X0167227Y0206996D01*
X0167167Y0206998D01*
X0150167Y0206998D01*
X0150107Y0206996D01*
X0150046Y0206991D01*
X0149987Y0206982D01*
X0149928Y0206969D01*
X0149869Y0206953D01*
X0149812Y0206933D01*
X0149757Y0206910D01*
X0149702Y0206883D01*
X0149650Y0206854D01*
X0149599Y0206821D01*
X0149550Y0206785D01*
X0149504Y0206747D01*
X0149460Y0206705D01*
X0149418Y0206661D01*
X0149380Y0206615D01*
X0149344Y0206566D01*
X0149311Y0206515D01*
X0149282Y0206463D01*
X0149255Y0206408D01*
X0149232Y0206353D01*
X0149212Y0206296D01*
X0149196Y0206237D01*
X0149183Y0206178D01*
X0149174Y0206119D01*
X0149169Y0206058D01*
X0149167Y0205998D01*
X0157167Y0201998D02*
X0157667Y0201998D01*
X0159667Y0201998D02*
X0160167Y0201998D01*
X0051167Y0085498D02*
X0051167Y0078498D01*
X0051165Y0078438D01*
X0051160Y0078377D01*
X0051151Y0078318D01*
X0051138Y0078259D01*
X0051122Y0078200D01*
X0051102Y0078143D01*
X0051079Y0078088D01*
X0051052Y0078033D01*
X0051023Y0077981D01*
X0050990Y0077930D01*
X0050954Y0077881D01*
X0050916Y0077835D01*
X0050874Y0077791D01*
X0050830Y0077749D01*
X0050784Y0077711D01*
X0050735Y0077675D01*
X0050684Y0077642D01*
X0050632Y0077613D01*
X0050577Y0077586D01*
X0050522Y0077563D01*
X0050465Y0077543D01*
X0050406Y0077527D01*
X0050347Y0077514D01*
X0050288Y0077505D01*
X0050227Y0077500D01*
X0050167Y0077498D01*
X0048667Y0077498D01*
X0048167Y0077998D01*
X0029167Y0077998D01*
X0028667Y0077498D01*
X0027167Y0077498D01*
X0027107Y0077500D01*
X0027046Y0077505D01*
X0026987Y0077514D01*
X0026928Y0077527D01*
X0026869Y0077543D01*
X0026812Y0077563D01*
X0026757Y0077586D01*
X0026702Y0077613D01*
X0026650Y0077642D01*
X0026599Y0077675D01*
X0026550Y0077711D01*
X0026504Y0077749D01*
X0026460Y0077791D01*
X0026418Y0077835D01*
X0026380Y0077881D01*
X0026344Y0077930D01*
X0026311Y0077981D01*
X0026282Y0078033D01*
X0026255Y0078088D01*
X0026232Y0078143D01*
X0026212Y0078200D01*
X0026196Y0078259D01*
X0026183Y0078318D01*
X0026174Y0078377D01*
X0026169Y0078438D01*
X0026167Y0078498D01*
X0026167Y0085498D01*
X0026169Y0085558D01*
X0026174Y0085619D01*
X0026183Y0085678D01*
X0026196Y0085737D01*
X0026212Y0085796D01*
X0026232Y0085853D01*
X0026255Y0085908D01*
X0026282Y0085963D01*
X0026311Y0086015D01*
X0026344Y0086066D01*
X0026380Y0086115D01*
X0026418Y0086161D01*
X0026460Y0086205D01*
X0026504Y0086247D01*
X0026550Y0086285D01*
X0026599Y0086321D01*
X0026650Y0086354D01*
X0026702Y0086383D01*
X0026757Y0086410D01*
X0026812Y0086433D01*
X0026869Y0086453D01*
X0026928Y0086469D01*
X0026987Y0086482D01*
X0027046Y0086491D01*
X0027107Y0086496D01*
X0027167Y0086498D01*
X0028667Y0086498D01*
X0029167Y0085998D01*
X0048167Y0085998D01*
X0048667Y0086498D01*
X0050167Y0086498D01*
X0050227Y0086496D01*
X0050288Y0086491D01*
X0050347Y0086482D01*
X0050406Y0086469D01*
X0050465Y0086453D01*
X0050522Y0086433D01*
X0050577Y0086410D01*
X0050632Y0086383D01*
X0050684Y0086354D01*
X0050735Y0086321D01*
X0050784Y0086285D01*
X0050830Y0086247D01*
X0050874Y0086205D01*
X0050916Y0086161D01*
X0050954Y0086115D01*
X0050990Y0086066D01*
X0051023Y0086015D01*
X0051052Y0085963D01*
X0051079Y0085908D01*
X0051102Y0085853D01*
X0051122Y0085796D01*
X0051138Y0085737D01*
X0051151Y0085678D01*
X0051160Y0085619D01*
X0051165Y0085558D01*
X0051167Y0085498D01*
D12*
X0067667Y0054998D02*
X0067667Y0051998D01*
X0067667Y0048998D01*
X0069667Y0048998D02*
X0069667Y0051998D01*
X0069667Y0054998D01*
X0024698Y0053944D02*
X0024529Y0053845D01*
X0024363Y0053741D01*
X0024199Y0053634D01*
X0024038Y0053523D01*
X0023880Y0053408D01*
X0023725Y0053289D01*
X0023572Y0053166D01*
X0023423Y0053040D01*
X0023277Y0052910D01*
X0023134Y0052776D01*
X0022994Y0052639D01*
X0022858Y0052499D01*
X0022725Y0052355D01*
X0022596Y0052208D01*
X0022470Y0052058D01*
X0022349Y0051905D01*
X0022230Y0051749D01*
X0022116Y0051590D01*
X0022006Y0051429D01*
X0021900Y0051264D01*
X0021797Y0051098D01*
X0021699Y0050928D01*
X0021605Y0050757D01*
X0021515Y0050583D01*
X0021430Y0050407D01*
X0021348Y0050229D01*
X0021272Y0050049D01*
X0021199Y0049867D01*
X0021131Y0049684D01*
X0021068Y0049499D01*
X0021009Y0049312D01*
X0020955Y0049124D01*
X0020905Y0048935D01*
X0020860Y0048745D01*
X0020820Y0048553D01*
X0020784Y0048361D01*
X0020753Y0048168D01*
X0020727Y0047974D01*
X0020705Y0047779D01*
X0020689Y0047584D01*
X0020677Y0047389D01*
X0020669Y0047193D01*
X0020667Y0046998D01*
X0032432Y0054057D02*
X0032600Y0053964D01*
X0032766Y0053868D01*
X0032930Y0053768D01*
X0033091Y0053663D01*
X0033250Y0053555D01*
X0033406Y0053443D01*
X0033560Y0053327D01*
X0033710Y0053208D01*
X0033858Y0053085D01*
X0034003Y0052959D01*
X0034144Y0052829D01*
X0034283Y0052696D01*
X0034418Y0052559D01*
X0034550Y0052419D01*
X0034678Y0052277D01*
X0034803Y0052131D01*
X0034925Y0051982D01*
X0035043Y0051830D01*
X0035157Y0051676D01*
X0035267Y0051518D01*
X0035374Y0051359D01*
X0035477Y0051196D01*
X0035576Y0051031D01*
X0035671Y0050864D01*
X0035761Y0050695D01*
X0035848Y0050524D01*
X0035931Y0050350D01*
X0036009Y0050175D01*
X0036083Y0049997D01*
X0036153Y0049818D01*
X0036219Y0049638D01*
X0036280Y0049456D01*
X0036337Y0049272D01*
X0036389Y0049087D01*
X0036437Y0048901D01*
X0036481Y0048714D01*
X0036520Y0048526D01*
X0036554Y0048337D01*
X0036584Y0048147D01*
X0036609Y0047957D01*
X0036630Y0047766D01*
X0036646Y0047574D01*
X0036658Y0047382D01*
X0036665Y0047190D01*
X0036667Y0046998D01*
X0023499Y0040891D02*
X0023353Y0041018D01*
X0023211Y0041147D01*
X0023071Y0041281D01*
X0022935Y0041417D01*
X0022802Y0041557D01*
X0022672Y0041700D01*
X0022546Y0041847D01*
X0022424Y0041996D01*
X0022305Y0042148D01*
X0022190Y0042303D01*
X0022078Y0042460D01*
X0021971Y0042620D01*
X0021867Y0042783D01*
X0021768Y0042949D01*
X0021672Y0043116D01*
X0021580Y0043286D01*
X0021493Y0043458D01*
X0021409Y0043632D01*
X0021330Y0043808D01*
X0021256Y0043986D01*
X0021185Y0044166D01*
X0021119Y0044347D01*
X0021057Y0044530D01*
X0021000Y0044714D01*
X0020947Y0044900D01*
X0020899Y0045087D01*
X0020855Y0045275D01*
X0020816Y0045464D01*
X0020781Y0045654D01*
X0020751Y0045844D01*
X0020725Y0046035D01*
X0020704Y0046227D01*
X0020688Y0046420D01*
X0020676Y0046612D01*
X0020669Y0046805D01*
X0020667Y0046998D01*
X0033789Y0040852D02*
X0033937Y0040979D01*
X0034082Y0041109D01*
X0034223Y0041242D01*
X0034362Y0041379D01*
X0034497Y0041519D01*
X0034628Y0041663D01*
X0034756Y0041810D01*
X0034881Y0041959D01*
X0035002Y0042112D01*
X0035119Y0042267D01*
X0035232Y0042426D01*
X0035341Y0042587D01*
X0035446Y0042751D01*
X0035548Y0042917D01*
X0035645Y0043086D01*
X0035738Y0043256D01*
X0035827Y0043430D01*
X0035912Y0043605D01*
X0035992Y0043782D01*
X0036068Y0043961D01*
X0036140Y0044142D01*
X0036207Y0044325D01*
X0036270Y0044509D01*
X0036328Y0044695D01*
X0036382Y0044882D01*
X0036431Y0045070D01*
X0036476Y0045260D01*
X0036516Y0045450D01*
X0036551Y0045642D01*
X0036582Y0045834D01*
X0036608Y0046027D01*
X0036629Y0046221D01*
X0036646Y0046415D01*
X0036658Y0046609D01*
X0036665Y0046803D01*
X0036667Y0046998D01*
X0125667Y0165998D02*
X0128667Y0165998D01*
X0131667Y0165998D01*
X0131667Y0167998D02*
X0128667Y0167998D01*
X0125667Y0167998D01*
X0157667Y0198998D02*
X0157667Y0201998D01*
X0157667Y0204998D01*
X0159667Y0204998D02*
X0159667Y0201998D01*
X0159667Y0198998D01*
X0125613Y0220967D02*
X0125514Y0221136D01*
X0125410Y0221302D01*
X0125303Y0221466D01*
X0125192Y0221627D01*
X0125077Y0221785D01*
X0124958Y0221940D01*
X0124835Y0222093D01*
X0124709Y0222242D01*
X0124579Y0222388D01*
X0124445Y0222531D01*
X0124308Y0222671D01*
X0124168Y0222807D01*
X0124024Y0222940D01*
X0123877Y0223069D01*
X0123727Y0223195D01*
X0123574Y0223316D01*
X0123418Y0223435D01*
X0123259Y0223549D01*
X0123098Y0223659D01*
X0122933Y0223765D01*
X0122767Y0223868D01*
X0122597Y0223966D01*
X0122426Y0224060D01*
X0122252Y0224150D01*
X0122076Y0224235D01*
X0121898Y0224317D01*
X0121718Y0224393D01*
X0121536Y0224466D01*
X0121353Y0224534D01*
X0121168Y0224597D01*
X0120981Y0224656D01*
X0120793Y0224710D01*
X0120604Y0224760D01*
X0120414Y0224805D01*
X0120222Y0224845D01*
X0120030Y0224881D01*
X0119837Y0224912D01*
X0119643Y0224938D01*
X0119448Y0224960D01*
X0119253Y0224976D01*
X0119058Y0224988D01*
X0118862Y0224996D01*
X0118667Y0224998D01*
X0125725Y0213233D02*
X0125632Y0213065D01*
X0125536Y0212899D01*
X0125436Y0212735D01*
X0125331Y0212574D01*
X0125223Y0212415D01*
X0125111Y0212259D01*
X0124995Y0212105D01*
X0124876Y0211955D01*
X0124753Y0211807D01*
X0124627Y0211662D01*
X0124497Y0211521D01*
X0124364Y0211382D01*
X0124227Y0211247D01*
X0124087Y0211115D01*
X0123945Y0210987D01*
X0123799Y0210862D01*
X0123650Y0210740D01*
X0123498Y0210622D01*
X0123344Y0210508D01*
X0123186Y0210398D01*
X0123027Y0210291D01*
X0122864Y0210188D01*
X0122699Y0210089D01*
X0122532Y0209994D01*
X0122363Y0209904D01*
X0122192Y0209817D01*
X0122018Y0209734D01*
X0121843Y0209656D01*
X0121665Y0209582D01*
X0121486Y0209512D01*
X0121306Y0209446D01*
X0121124Y0209385D01*
X0120940Y0209328D01*
X0120755Y0209276D01*
X0120569Y0209228D01*
X0120382Y0209184D01*
X0120194Y0209145D01*
X0120005Y0209111D01*
X0119815Y0209081D01*
X0119625Y0209056D01*
X0119434Y0209035D01*
X0119242Y0209019D01*
X0119050Y0209007D01*
X0118858Y0209000D01*
X0118666Y0208998D01*
X0112560Y0222166D02*
X0112687Y0222312D01*
X0112816Y0222454D01*
X0112950Y0222594D01*
X0113086Y0222730D01*
X0113226Y0222863D01*
X0113369Y0222993D01*
X0113516Y0223119D01*
X0113665Y0223241D01*
X0113817Y0223360D01*
X0113972Y0223475D01*
X0114129Y0223587D01*
X0114289Y0223694D01*
X0114452Y0223798D01*
X0114618Y0223897D01*
X0114785Y0223993D01*
X0114955Y0224085D01*
X0115127Y0224172D01*
X0115301Y0224256D01*
X0115477Y0224335D01*
X0115655Y0224409D01*
X0115835Y0224480D01*
X0116016Y0224546D01*
X0116199Y0224608D01*
X0116383Y0224665D01*
X0116569Y0224718D01*
X0116756Y0224766D01*
X0116944Y0224810D01*
X0117133Y0224849D01*
X0117323Y0224884D01*
X0117513Y0224914D01*
X0117704Y0224940D01*
X0117896Y0224961D01*
X0118089Y0224977D01*
X0118281Y0224989D01*
X0118474Y0224996D01*
X0118667Y0224998D01*
X0112521Y0211876D02*
X0112648Y0211728D01*
X0112778Y0211583D01*
X0112911Y0211442D01*
X0113048Y0211303D01*
X0113188Y0211168D01*
X0113332Y0211037D01*
X0113479Y0210909D01*
X0113628Y0210784D01*
X0113781Y0210663D01*
X0113936Y0210546D01*
X0114095Y0210433D01*
X0114256Y0210324D01*
X0114420Y0210219D01*
X0114586Y0210117D01*
X0114755Y0210020D01*
X0114925Y0209927D01*
X0115099Y0209838D01*
X0115274Y0209753D01*
X0115451Y0209673D01*
X0115630Y0209597D01*
X0115811Y0209525D01*
X0115994Y0209458D01*
X0116178Y0209395D01*
X0116364Y0209337D01*
X0116551Y0209283D01*
X0116739Y0209234D01*
X0116929Y0209189D01*
X0117119Y0209149D01*
X0117311Y0209114D01*
X0117503Y0209083D01*
X0117696Y0209057D01*
X0117890Y0209036D01*
X0118084Y0209019D01*
X0118278Y0209007D01*
X0118472Y0209000D01*
X0118667Y0208998D01*
D13*
X0198667Y0209498D02*
X0198667Y0204498D01*
X0201167Y0201998D01*
X0198667Y0199498D01*
X0198667Y0194498D01*
X0201167Y0191998D01*
X0198667Y0189498D01*
X0198667Y0184498D01*
X0201167Y0181998D01*
X0198667Y0179498D01*
X0198667Y0174498D01*
X0201167Y0171998D01*
X0206167Y0171998D01*
X0208667Y0174498D01*
X0208667Y0179498D01*
X0206167Y0181998D01*
X0208667Y0184498D01*
X0208667Y0189498D01*
X0206167Y0191998D01*
X0208667Y0194498D01*
X0208667Y0199498D01*
X0206167Y0201998D01*
X0208667Y0204498D01*
X0208667Y0209498D01*
X0206167Y0211998D01*
X0208667Y0214498D01*
X0208667Y0219498D01*
X0206167Y0221998D01*
X0201167Y0221998D01*
X0198667Y0219498D01*
X0198667Y0214498D01*
X0201167Y0211998D01*
X0198667Y0209498D01*
X0201167Y0171998D02*
X0206167Y0171998D01*
X0208667Y0169498D01*
X0208667Y0164498D01*
X0206167Y0161998D01*
X0208667Y0159498D01*
X0208667Y0154498D01*
X0206167Y0151998D01*
X0208667Y0149498D01*
X0208667Y0144498D01*
X0206167Y0141998D01*
X0208667Y0139498D01*
X0208667Y0134498D01*
X0206167Y0131998D01*
X0208667Y0129498D01*
X0208667Y0124498D01*
X0206167Y0121998D01*
X0208667Y0119498D01*
X0208667Y0114498D01*
X0206167Y0111998D01*
X0208667Y0109498D01*
X0208667Y0104498D01*
X0206167Y0101998D01*
X0208667Y0099498D01*
X0208667Y0094498D01*
X0206167Y0091998D01*
X0201167Y0091998D01*
X0198667Y0094498D01*
X0198667Y0099498D01*
X0201167Y0101998D01*
X0198667Y0104498D01*
X0198667Y0109498D01*
X0201167Y0111998D01*
X0198667Y0114498D01*
X0198667Y0119498D01*
X0201167Y0121998D01*
X0198667Y0124498D01*
X0198667Y0129498D01*
X0201167Y0131998D01*
X0198667Y0134498D01*
X0198667Y0139498D01*
X0201167Y0141998D01*
X0198667Y0144498D01*
X0198667Y0149498D01*
X0201167Y0151998D01*
X0198667Y0154498D01*
X0198667Y0159498D01*
X0201167Y0161998D01*
X0198667Y0164498D01*
X0198667Y0169498D01*
X0201167Y0171998D01*
X0066667Y0100998D02*
X0066487Y0099203D01*
X0066347Y0097405D01*
X0066247Y0095604D01*
X0066187Y0093802D01*
X0066167Y0091998D01*
X0066187Y0090194D01*
X0066247Y0088392D01*
X0066347Y0086591D01*
X0066487Y0084793D01*
X0066667Y0082998D01*
X0066667Y0082999D02*
X0066696Y0082828D01*
X0066729Y0082658D01*
X0066765Y0082489D01*
X0066806Y0082321D01*
X0066852Y0082154D01*
X0066901Y0081988D01*
X0066954Y0081823D01*
X0067011Y0081660D01*
X0067072Y0081498D01*
X0067137Y0081337D01*
X0067206Y0081179D01*
X0067279Y0081022D01*
X0067356Y0080867D01*
X0067436Y0080713D01*
X0067521Y0080562D01*
X0067608Y0080413D01*
X0067700Y0080266D01*
X0067795Y0080121D01*
X0067893Y0079979D01*
X0067995Y0079839D01*
X0068101Y0079702D01*
X0068209Y0079567D01*
X0068321Y0079435D01*
X0068436Y0079306D01*
X0068555Y0079180D01*
X0068676Y0079056D01*
X0068800Y0078936D01*
X0068927Y0078818D01*
X0069057Y0078704D01*
X0069190Y0078593D01*
X0069326Y0078485D01*
X0069464Y0078381D01*
X0069604Y0078280D01*
X0069747Y0078182D01*
X0069893Y0078088D01*
X0070040Y0077998D01*
X0070190Y0077911D01*
X0070342Y0077828D01*
X0070495Y0077749D01*
X0070651Y0077673D01*
X0070809Y0077601D01*
X0070968Y0077533D01*
X0071129Y0077469D01*
X0071291Y0077409D01*
X0071455Y0077353D01*
X0071620Y0077301D01*
X0071786Y0077253D01*
X0071953Y0077209D01*
X0072122Y0077170D01*
X0072291Y0077134D01*
X0072461Y0077102D01*
X0072632Y0077075D01*
X0072804Y0077052D01*
X0072976Y0077033D01*
X0073148Y0077018D01*
X0073321Y0077007D01*
X0073494Y0077001D01*
X0073667Y0076999D01*
X0073840Y0077001D01*
X0074013Y0077007D01*
X0074186Y0077018D01*
X0074358Y0077033D01*
X0074530Y0077052D01*
X0074702Y0077075D01*
X0074873Y0077102D01*
X0075043Y0077134D01*
X0075212Y0077170D01*
X0075381Y0077209D01*
X0075548Y0077253D01*
X0075714Y0077301D01*
X0075879Y0077353D01*
X0076043Y0077409D01*
X0076205Y0077469D01*
X0076366Y0077533D01*
X0076525Y0077601D01*
X0076683Y0077673D01*
X0076839Y0077749D01*
X0076992Y0077828D01*
X0077144Y0077911D01*
X0077294Y0077998D01*
X0077441Y0078088D01*
X0077587Y0078182D01*
X0077730Y0078280D01*
X0077870Y0078381D01*
X0078008Y0078485D01*
X0078144Y0078593D01*
X0078277Y0078704D01*
X0078407Y0078818D01*
X0078534Y0078936D01*
X0078658Y0079056D01*
X0078779Y0079180D01*
X0078898Y0079306D01*
X0079013Y0079435D01*
X0079125Y0079567D01*
X0079233Y0079702D01*
X0079339Y0079839D01*
X0079441Y0079979D01*
X0079539Y0080121D01*
X0079634Y0080266D01*
X0079726Y0080413D01*
X0079813Y0080562D01*
X0079898Y0080713D01*
X0079978Y0080867D01*
X0080055Y0081022D01*
X0080128Y0081179D01*
X0080197Y0081337D01*
X0080262Y0081498D01*
X0080323Y0081660D01*
X0080380Y0081823D01*
X0080433Y0081988D01*
X0080482Y0082154D01*
X0080528Y0082321D01*
X0080569Y0082489D01*
X0080605Y0082658D01*
X0080638Y0082828D01*
X0080667Y0082999D01*
X0080667Y0100998D02*
X0080638Y0101169D01*
X0080605Y0101339D01*
X0080569Y0101508D01*
X0080528Y0101676D01*
X0080482Y0101843D01*
X0080433Y0102009D01*
X0080380Y0102174D01*
X0080323Y0102337D01*
X0080262Y0102499D01*
X0080197Y0102660D01*
X0080128Y0102818D01*
X0080055Y0102975D01*
X0079978Y0103130D01*
X0079898Y0103284D01*
X0079813Y0103435D01*
X0079726Y0103584D01*
X0079634Y0103731D01*
X0079539Y0103876D01*
X0079441Y0104018D01*
X0079339Y0104158D01*
X0079233Y0104295D01*
X0079125Y0104430D01*
X0079013Y0104562D01*
X0078898Y0104691D01*
X0078779Y0104817D01*
X0078658Y0104941D01*
X0078534Y0105061D01*
X0078407Y0105179D01*
X0078277Y0105293D01*
X0078144Y0105404D01*
X0078008Y0105512D01*
X0077870Y0105616D01*
X0077730Y0105717D01*
X0077587Y0105815D01*
X0077441Y0105909D01*
X0077294Y0105999D01*
X0077144Y0106086D01*
X0076992Y0106169D01*
X0076839Y0106248D01*
X0076683Y0106324D01*
X0076525Y0106396D01*
X0076366Y0106464D01*
X0076205Y0106528D01*
X0076043Y0106588D01*
X0075879Y0106644D01*
X0075714Y0106696D01*
X0075548Y0106744D01*
X0075381Y0106788D01*
X0075212Y0106827D01*
X0075043Y0106863D01*
X0074873Y0106895D01*
X0074702Y0106922D01*
X0074530Y0106945D01*
X0074358Y0106964D01*
X0074186Y0106979D01*
X0074013Y0106990D01*
X0073840Y0106996D01*
X0073667Y0106998D01*
X0073494Y0106996D01*
X0073321Y0106990D01*
X0073148Y0106979D01*
X0072976Y0106964D01*
X0072804Y0106945D01*
X0072632Y0106922D01*
X0072461Y0106895D01*
X0072291Y0106863D01*
X0072122Y0106827D01*
X0071953Y0106788D01*
X0071786Y0106744D01*
X0071620Y0106696D01*
X0071455Y0106644D01*
X0071291Y0106588D01*
X0071129Y0106528D01*
X0070968Y0106464D01*
X0070809Y0106396D01*
X0070651Y0106324D01*
X0070495Y0106248D01*
X0070342Y0106169D01*
X0070190Y0106086D01*
X0070040Y0105999D01*
X0069893Y0105909D01*
X0069747Y0105815D01*
X0069604Y0105717D01*
X0069464Y0105616D01*
X0069326Y0105512D01*
X0069190Y0105404D01*
X0069057Y0105293D01*
X0068927Y0105179D01*
X0068800Y0105061D01*
X0068676Y0104941D01*
X0068555Y0104817D01*
X0068436Y0104691D01*
X0068321Y0104562D01*
X0068209Y0104430D01*
X0068101Y0104295D01*
X0067995Y0104158D01*
X0067893Y0104018D01*
X0067795Y0103876D01*
X0067700Y0103731D01*
X0067608Y0103584D01*
X0067521Y0103435D01*
X0067436Y0103284D01*
X0067356Y0103130D01*
X0067279Y0102975D01*
X0067206Y0102818D01*
X0067137Y0102660D01*
X0067072Y0102499D01*
X0067011Y0102337D01*
X0066954Y0102174D01*
X0066901Y0102009D01*
X0066852Y0101843D01*
X0066806Y0101676D01*
X0066765Y0101508D01*
X0066729Y0101339D01*
X0066696Y0101169D01*
X0066667Y0100998D01*
X0023667Y0099498D02*
X0023667Y0094498D01*
X0021167Y0091998D01*
X0016167Y0091998D01*
X0013667Y0094498D01*
X0013667Y0099498D01*
X0016167Y0101998D01*
X0013667Y0104498D01*
X0013667Y0109498D01*
X0016167Y0111998D01*
X0013667Y0114498D01*
X0013667Y0119498D01*
X0016167Y0121998D01*
X0013667Y0124498D01*
X0013667Y0129498D01*
X0016167Y0131998D01*
X0013667Y0134498D01*
X0013667Y0139498D01*
X0016167Y0141998D01*
X0013667Y0144498D01*
X0013667Y0149498D01*
X0016167Y0151998D01*
X0013667Y0154498D01*
X0013667Y0159498D01*
X0016167Y0161998D01*
X0013667Y0164498D01*
X0013667Y0169498D01*
X0016167Y0171998D01*
X0021167Y0171998D01*
X0023667Y0169498D01*
X0023667Y0164498D01*
X0021167Y0161998D01*
X0023667Y0159498D01*
X0023667Y0154498D01*
X0021167Y0151998D01*
X0023667Y0149498D01*
X0023667Y0144498D01*
X0021167Y0141998D01*
X0023667Y0139498D01*
X0023667Y0134498D01*
X0021167Y0131998D01*
X0023667Y0129498D01*
X0023667Y0124498D01*
X0021167Y0121998D01*
X0023667Y0119498D01*
X0023667Y0114498D01*
X0021167Y0111998D01*
X0023667Y0109498D01*
X0023667Y0104498D01*
X0021167Y0101998D01*
X0023667Y0099498D01*
X0080667Y0100998D02*
X0080848Y0099203D01*
X0080988Y0097405D01*
X0081089Y0095604D01*
X0081149Y0093802D01*
X0081169Y0091998D01*
X0081149Y0090194D01*
X0081089Y0088392D01*
X0080988Y0086591D01*
X0080848Y0084793D01*
X0080667Y0082998D01*
D14*
X0052867Y0081998D03*
X0024467Y0081998D03*
X0044467Y0041998D03*
X0072867Y0041998D03*
X0134467Y0121998D03*
X0162867Y0121998D03*
X0107867Y0191998D03*
X0079467Y0191998D03*
D15*
X0078667Y0228498D02*
X0078667Y0243498D01*
X0068667Y0243498D01*
X0068667Y0228498D01*
X0133214Y0217998D02*
X0134794Y0217998D01*
X0135421Y0223498D02*
X0151913Y0223498D01*
X0152539Y0217998D02*
X0154119Y0217998D01*
X0144794Y0217998D02*
X0142539Y0217998D01*
X0151913Y0223498D02*
X0152066Y0223299D01*
X0152214Y0223097D01*
X0152357Y0222892D01*
X0152495Y0222683D01*
X0152628Y0222471D01*
X0152756Y0222256D01*
X0152878Y0222038D01*
X0152996Y0221817D01*
X0153108Y0221593D01*
X0153215Y0221367D01*
X0153316Y0221138D01*
X0153412Y0220907D01*
X0153503Y0220673D01*
X0153588Y0220438D01*
X0153667Y0220200D01*
X0153740Y0219961D01*
X0153808Y0219720D01*
X0153870Y0219478D01*
X0153926Y0219234D01*
X0153977Y0218988D01*
X0154021Y0218742D01*
X0154060Y0218495D01*
X0154092Y0218247D01*
X0154119Y0217998D01*
X0163667Y0221998D02*
X0163667Y0211998D01*
X0168667Y0206998D01*
X0178667Y0206998D01*
X0183667Y0211998D01*
X0183667Y0221998D01*
X0178667Y0226998D01*
X0168667Y0226998D01*
X0163667Y0221998D01*
X0168667Y0216998D02*
X0168669Y0217139D01*
X0168675Y0217280D01*
X0168685Y0217420D01*
X0168699Y0217560D01*
X0168717Y0217700D01*
X0168738Y0217839D01*
X0168764Y0217978D01*
X0168793Y0218116D01*
X0168827Y0218252D01*
X0168864Y0218388D01*
X0168905Y0218523D01*
X0168950Y0218657D01*
X0168999Y0218789D01*
X0169051Y0218920D01*
X0169107Y0219049D01*
X0169167Y0219176D01*
X0169230Y0219302D01*
X0169296Y0219426D01*
X0169367Y0219549D01*
X0169440Y0219669D01*
X0169517Y0219787D01*
X0169597Y0219903D01*
X0169681Y0220016D01*
X0169767Y0220127D01*
X0169857Y0220236D01*
X0169950Y0220342D01*
X0170045Y0220445D01*
X0170144Y0220546D01*
X0170245Y0220644D01*
X0170349Y0220739D01*
X0170456Y0220831D01*
X0170565Y0220920D01*
X0170677Y0221005D01*
X0170791Y0221088D01*
X0170907Y0221168D01*
X0171026Y0221244D01*
X0171147Y0221316D01*
X0171269Y0221386D01*
X0171394Y0221451D01*
X0171520Y0221514D01*
X0171648Y0221572D01*
X0171778Y0221627D01*
X0171909Y0221679D01*
X0172042Y0221726D01*
X0172176Y0221770D01*
X0172311Y0221811D01*
X0172447Y0221847D01*
X0172584Y0221879D01*
X0172722Y0221908D01*
X0172860Y0221933D01*
X0173000Y0221953D01*
X0173140Y0221970D01*
X0173280Y0221983D01*
X0173421Y0221992D01*
X0173561Y0221997D01*
X0173702Y0221998D01*
X0173843Y0221995D01*
X0173984Y0221988D01*
X0174124Y0221977D01*
X0174264Y0221962D01*
X0174404Y0221943D01*
X0174543Y0221921D01*
X0174681Y0221894D01*
X0174819Y0221864D01*
X0174955Y0221829D01*
X0175091Y0221791D01*
X0175225Y0221749D01*
X0175359Y0221703D01*
X0175491Y0221654D01*
X0175621Y0221600D01*
X0175750Y0221543D01*
X0175877Y0221483D01*
X0176003Y0221419D01*
X0176126Y0221351D01*
X0176248Y0221280D01*
X0176368Y0221206D01*
X0176485Y0221128D01*
X0176600Y0221047D01*
X0176713Y0220963D01*
X0176824Y0220876D01*
X0176932Y0220785D01*
X0177037Y0220692D01*
X0177140Y0220595D01*
X0177240Y0220496D01*
X0177337Y0220394D01*
X0177431Y0220289D01*
X0177522Y0220182D01*
X0177610Y0220072D01*
X0177695Y0219960D01*
X0177777Y0219845D01*
X0177856Y0219728D01*
X0177931Y0219609D01*
X0178003Y0219488D01*
X0178071Y0219365D01*
X0178136Y0219240D01*
X0178198Y0219113D01*
X0178255Y0218984D01*
X0178310Y0218854D01*
X0178360Y0218723D01*
X0178407Y0218590D01*
X0178450Y0218456D01*
X0178489Y0218320D01*
X0178524Y0218184D01*
X0178556Y0218047D01*
X0178583Y0217909D01*
X0178607Y0217770D01*
X0178627Y0217630D01*
X0178643Y0217490D01*
X0178655Y0217350D01*
X0178663Y0217209D01*
X0178667Y0217068D01*
X0178667Y0216928D01*
X0178663Y0216787D01*
X0178655Y0216646D01*
X0178643Y0216506D01*
X0178627Y0216366D01*
X0178607Y0216226D01*
X0178583Y0216087D01*
X0178556Y0215949D01*
X0178524Y0215812D01*
X0178489Y0215676D01*
X0178450Y0215540D01*
X0178407Y0215406D01*
X0178360Y0215273D01*
X0178310Y0215142D01*
X0178255Y0215012D01*
X0178198Y0214883D01*
X0178136Y0214756D01*
X0178071Y0214631D01*
X0178003Y0214508D01*
X0177931Y0214387D01*
X0177856Y0214268D01*
X0177777Y0214151D01*
X0177695Y0214036D01*
X0177610Y0213924D01*
X0177522Y0213814D01*
X0177431Y0213707D01*
X0177337Y0213602D01*
X0177240Y0213500D01*
X0177140Y0213401D01*
X0177037Y0213304D01*
X0176932Y0213211D01*
X0176824Y0213120D01*
X0176713Y0213033D01*
X0176600Y0212949D01*
X0176485Y0212868D01*
X0176368Y0212790D01*
X0176248Y0212716D01*
X0176126Y0212645D01*
X0176003Y0212577D01*
X0175877Y0212513D01*
X0175750Y0212453D01*
X0175621Y0212396D01*
X0175491Y0212342D01*
X0175359Y0212293D01*
X0175225Y0212247D01*
X0175091Y0212205D01*
X0174955Y0212167D01*
X0174819Y0212132D01*
X0174681Y0212102D01*
X0174543Y0212075D01*
X0174404Y0212053D01*
X0174264Y0212034D01*
X0174124Y0212019D01*
X0173984Y0212008D01*
X0173843Y0212001D01*
X0173702Y0211998D01*
X0173561Y0211999D01*
X0173421Y0212004D01*
X0173280Y0212013D01*
X0173140Y0212026D01*
X0173000Y0212043D01*
X0172860Y0212063D01*
X0172722Y0212088D01*
X0172584Y0212117D01*
X0172447Y0212149D01*
X0172311Y0212185D01*
X0172176Y0212226D01*
X0172042Y0212270D01*
X0171909Y0212317D01*
X0171778Y0212369D01*
X0171648Y0212424D01*
X0171520Y0212482D01*
X0171394Y0212545D01*
X0171269Y0212610D01*
X0171147Y0212680D01*
X0171026Y0212752D01*
X0170907Y0212828D01*
X0170791Y0212908D01*
X0170677Y0212991D01*
X0170565Y0213076D01*
X0170456Y0213165D01*
X0170349Y0213257D01*
X0170245Y0213352D01*
X0170144Y0213450D01*
X0170045Y0213551D01*
X0169950Y0213654D01*
X0169857Y0213760D01*
X0169767Y0213869D01*
X0169681Y0213980D01*
X0169597Y0214093D01*
X0169517Y0214209D01*
X0169440Y0214327D01*
X0169367Y0214447D01*
X0169296Y0214570D01*
X0169230Y0214694D01*
X0169167Y0214820D01*
X0169107Y0214947D01*
X0169051Y0215076D01*
X0168999Y0215207D01*
X0168950Y0215339D01*
X0168905Y0215473D01*
X0168864Y0215608D01*
X0168827Y0215744D01*
X0168793Y0215880D01*
X0168764Y0216018D01*
X0168738Y0216157D01*
X0168717Y0216296D01*
X0168699Y0216436D01*
X0168685Y0216576D01*
X0168675Y0216716D01*
X0168669Y0216857D01*
X0168667Y0216998D01*
X0154119Y0217998D02*
X0154141Y0217743D01*
X0154156Y0217487D01*
X0154164Y0217231D01*
X0154167Y0216974D01*
X0154163Y0216718D01*
X0154153Y0216462D01*
X0154137Y0216206D01*
X0154115Y0215951D01*
X0154086Y0215696D01*
X0154051Y0215442D01*
X0154010Y0215189D01*
X0153963Y0214937D01*
X0153909Y0214687D01*
X0153850Y0214438D01*
X0153784Y0214190D01*
X0153713Y0213944D01*
X0153635Y0213699D01*
X0153552Y0213457D01*
X0153463Y0213217D01*
X0153367Y0212979D01*
X0153266Y0212743D01*
X0153160Y0212510D01*
X0153047Y0212280D01*
X0152929Y0212052D01*
X0152806Y0211828D01*
X0152677Y0211606D01*
X0152543Y0211388D01*
X0152403Y0211173D01*
X0152258Y0210962D01*
X0152108Y0210754D01*
X0151954Y0210550D01*
X0151794Y0210349D01*
X0151629Y0210153D01*
X0151460Y0209961D01*
X0151285Y0209772D01*
X0151107Y0209589D01*
X0150924Y0209409D01*
X0150736Y0209234D01*
X0150545Y0209064D01*
X0150349Y0208899D01*
X0150149Y0208738D01*
X0149946Y0208582D01*
X0149739Y0208432D01*
X0149528Y0208286D01*
X0149313Y0208145D01*
X0149096Y0208010D01*
X0148875Y0207880D01*
X0148651Y0207756D01*
X0148424Y0207637D01*
X0148194Y0207524D01*
X0147961Y0207416D01*
X0147726Y0207314D01*
X0147488Y0207218D01*
X0147249Y0207128D01*
X0147007Y0207043D01*
X0146763Y0206965D01*
X0140571Y0206965D02*
X0140329Y0207043D01*
X0140089Y0207127D01*
X0139851Y0207216D01*
X0139615Y0207312D01*
X0139381Y0207413D01*
X0139150Y0207519D01*
X0138922Y0207632D01*
X0138696Y0207749D01*
X0138473Y0207872D01*
X0138254Y0208001D01*
X0138037Y0208135D01*
X0137824Y0208274D01*
X0137614Y0208418D01*
X0137408Y0208567D01*
X0137206Y0208721D01*
X0137007Y0208880D01*
X0136812Y0209044D01*
X0136621Y0209213D01*
X0136435Y0209386D01*
X0136252Y0209563D01*
X0136074Y0209745D01*
X0135901Y0209931D01*
X0135732Y0210122D01*
X0135568Y0210316D01*
X0135408Y0210514D01*
X0135253Y0210716D01*
X0135104Y0210922D01*
X0134959Y0211131D01*
X0134819Y0211344D01*
X0134685Y0211560D01*
X0134556Y0211780D01*
X0134432Y0212002D01*
X0134313Y0212227D01*
X0134201Y0212455D01*
X0134093Y0212686D01*
X0133992Y0212919D01*
X0133896Y0213155D01*
X0133805Y0213393D01*
X0133721Y0213633D01*
X0133642Y0213875D01*
X0133569Y0214119D01*
X0133503Y0214365D01*
X0133442Y0214612D01*
X0133387Y0214860D01*
X0133338Y0215110D01*
X0133295Y0215361D01*
X0133259Y0215613D01*
X0133228Y0215865D01*
X0133204Y0216119D01*
X0133186Y0216372D01*
X0133174Y0216627D01*
X0133168Y0216881D01*
X0133168Y0217136D01*
X0133174Y0217390D01*
X0133187Y0217644D01*
X0133206Y0217898D01*
X0133231Y0218151D01*
X0133262Y0218404D01*
X0133299Y0218656D01*
X0133342Y0218906D01*
X0133391Y0219156D01*
X0133446Y0219405D01*
X0133508Y0219652D01*
X0133575Y0219897D01*
X0133648Y0220141D01*
X0133727Y0220383D01*
X0133812Y0220622D01*
X0133903Y0220860D01*
X0134000Y0221096D01*
X0134102Y0221329D01*
X0134210Y0221559D01*
X0134323Y0221787D01*
X0134442Y0222012D01*
X0134566Y0222234D01*
X0134695Y0222453D01*
X0134830Y0222669D01*
X0134970Y0222882D01*
X0135116Y0223091D01*
X0135266Y0223296D01*
X0135421Y0223498D01*
X0033667Y0076998D02*
X0023667Y0076998D01*
X0018667Y0071998D01*
X0018667Y0061998D01*
X0023667Y0056998D01*
X0033667Y0056998D01*
X0038667Y0061998D01*
X0038667Y0071998D01*
X0033667Y0076998D01*
X0023667Y0066998D02*
X0023669Y0067139D01*
X0023675Y0067280D01*
X0023685Y0067420D01*
X0023699Y0067560D01*
X0023717Y0067700D01*
X0023738Y0067839D01*
X0023764Y0067978D01*
X0023793Y0068116D01*
X0023827Y0068252D01*
X0023864Y0068388D01*
X0023905Y0068523D01*
X0023950Y0068657D01*
X0023999Y0068789D01*
X0024051Y0068920D01*
X0024107Y0069049D01*
X0024167Y0069176D01*
X0024230Y0069302D01*
X0024296Y0069426D01*
X0024367Y0069549D01*
X0024440Y0069669D01*
X0024517Y0069787D01*
X0024597Y0069903D01*
X0024681Y0070016D01*
X0024767Y0070127D01*
X0024857Y0070236D01*
X0024950Y0070342D01*
X0025045Y0070445D01*
X0025144Y0070546D01*
X0025245Y0070644D01*
X0025349Y0070739D01*
X0025456Y0070831D01*
X0025565Y0070920D01*
X0025677Y0071005D01*
X0025791Y0071088D01*
X0025907Y0071168D01*
X0026026Y0071244D01*
X0026147Y0071316D01*
X0026269Y0071386D01*
X0026394Y0071451D01*
X0026520Y0071514D01*
X0026648Y0071572D01*
X0026778Y0071627D01*
X0026909Y0071679D01*
X0027042Y0071726D01*
X0027176Y0071770D01*
X0027311Y0071811D01*
X0027447Y0071847D01*
X0027584Y0071879D01*
X0027722Y0071908D01*
X0027860Y0071933D01*
X0028000Y0071953D01*
X0028140Y0071970D01*
X0028280Y0071983D01*
X0028421Y0071992D01*
X0028561Y0071997D01*
X0028702Y0071998D01*
X0028843Y0071995D01*
X0028984Y0071988D01*
X0029124Y0071977D01*
X0029264Y0071962D01*
X0029404Y0071943D01*
X0029543Y0071921D01*
X0029681Y0071894D01*
X0029819Y0071864D01*
X0029955Y0071829D01*
X0030091Y0071791D01*
X0030225Y0071749D01*
X0030359Y0071703D01*
X0030491Y0071654D01*
X0030621Y0071600D01*
X0030750Y0071543D01*
X0030877Y0071483D01*
X0031003Y0071419D01*
X0031126Y0071351D01*
X0031248Y0071280D01*
X0031368Y0071206D01*
X0031485Y0071128D01*
X0031600Y0071047D01*
X0031713Y0070963D01*
X0031824Y0070876D01*
X0031932Y0070785D01*
X0032037Y0070692D01*
X0032140Y0070595D01*
X0032240Y0070496D01*
X0032337Y0070394D01*
X0032431Y0070289D01*
X0032522Y0070182D01*
X0032610Y0070072D01*
X0032695Y0069960D01*
X0032777Y0069845D01*
X0032856Y0069728D01*
X0032931Y0069609D01*
X0033003Y0069488D01*
X0033071Y0069365D01*
X0033136Y0069240D01*
X0033198Y0069113D01*
X0033255Y0068984D01*
X0033310Y0068854D01*
X0033360Y0068723D01*
X0033407Y0068590D01*
X0033450Y0068456D01*
X0033489Y0068320D01*
X0033524Y0068184D01*
X0033556Y0068047D01*
X0033583Y0067909D01*
X0033607Y0067770D01*
X0033627Y0067630D01*
X0033643Y0067490D01*
X0033655Y0067350D01*
X0033663Y0067209D01*
X0033667Y0067068D01*
X0033667Y0066928D01*
X0033663Y0066787D01*
X0033655Y0066646D01*
X0033643Y0066506D01*
X0033627Y0066366D01*
X0033607Y0066226D01*
X0033583Y0066087D01*
X0033556Y0065949D01*
X0033524Y0065812D01*
X0033489Y0065676D01*
X0033450Y0065540D01*
X0033407Y0065406D01*
X0033360Y0065273D01*
X0033310Y0065142D01*
X0033255Y0065012D01*
X0033198Y0064883D01*
X0033136Y0064756D01*
X0033071Y0064631D01*
X0033003Y0064508D01*
X0032931Y0064387D01*
X0032856Y0064268D01*
X0032777Y0064151D01*
X0032695Y0064036D01*
X0032610Y0063924D01*
X0032522Y0063814D01*
X0032431Y0063707D01*
X0032337Y0063602D01*
X0032240Y0063500D01*
X0032140Y0063401D01*
X0032037Y0063304D01*
X0031932Y0063211D01*
X0031824Y0063120D01*
X0031713Y0063033D01*
X0031600Y0062949D01*
X0031485Y0062868D01*
X0031368Y0062790D01*
X0031248Y0062716D01*
X0031126Y0062645D01*
X0031003Y0062577D01*
X0030877Y0062513D01*
X0030750Y0062453D01*
X0030621Y0062396D01*
X0030491Y0062342D01*
X0030359Y0062293D01*
X0030225Y0062247D01*
X0030091Y0062205D01*
X0029955Y0062167D01*
X0029819Y0062132D01*
X0029681Y0062102D01*
X0029543Y0062075D01*
X0029404Y0062053D01*
X0029264Y0062034D01*
X0029124Y0062019D01*
X0028984Y0062008D01*
X0028843Y0062001D01*
X0028702Y0061998D01*
X0028561Y0061999D01*
X0028421Y0062004D01*
X0028280Y0062013D01*
X0028140Y0062026D01*
X0028000Y0062043D01*
X0027860Y0062063D01*
X0027722Y0062088D01*
X0027584Y0062117D01*
X0027447Y0062149D01*
X0027311Y0062185D01*
X0027176Y0062226D01*
X0027042Y0062270D01*
X0026909Y0062317D01*
X0026778Y0062369D01*
X0026648Y0062424D01*
X0026520Y0062482D01*
X0026394Y0062545D01*
X0026269Y0062610D01*
X0026147Y0062680D01*
X0026026Y0062752D01*
X0025907Y0062828D01*
X0025791Y0062908D01*
X0025677Y0062991D01*
X0025565Y0063076D01*
X0025456Y0063165D01*
X0025349Y0063257D01*
X0025245Y0063352D01*
X0025144Y0063450D01*
X0025045Y0063551D01*
X0024950Y0063654D01*
X0024857Y0063760D01*
X0024767Y0063869D01*
X0024681Y0063980D01*
X0024597Y0064093D01*
X0024517Y0064209D01*
X0024440Y0064327D01*
X0024367Y0064447D01*
X0024296Y0064570D01*
X0024230Y0064694D01*
X0024167Y0064820D01*
X0024107Y0064947D01*
X0024051Y0065076D01*
X0023999Y0065207D01*
X0023950Y0065339D01*
X0023905Y0065473D01*
X0023864Y0065608D01*
X0023827Y0065744D01*
X0023793Y0065880D01*
X0023764Y0066018D01*
X0023738Y0066157D01*
X0023717Y0066296D01*
X0023699Y0066436D01*
X0023685Y0066576D01*
X0023675Y0066716D01*
X0023669Y0066857D01*
X0023667Y0066998D01*
M02*
